<svg width="80" height="65" viewBox="0 0 80 65" fill="none" xmlns="http://www.w3.org/2000/svg">
<g clip-path="url(#clip0_63608_7)">
<path d="M8.82516 8.49461C8.67422 4.07525 12.0513 0 16.6159 0H63.3898C67.9545 0 71.3316 4.07525 71.1806 8.49461C71.0356 12.7398 71.2239 18.239 72.5812 22.7229C73.943 27.2207 76.2392 30.0636 80 30.4289V34.5711C76.2392 34.9364 73.943 37.7793 72.5812 42.2771C71.2239 46.761 71.0356 52.2602 71.1806 56.5056C71.3316 60.9248 67.9545 65 63.3898 65H16.6159C12.0513 65 8.67422 60.9248 8.82531 56.5056C8.97016 52.2602 8.78187 46.761 7.42437 42.2771C6.06281 37.7793 3.76094 34.9364 0 34.5711V30.4289C3.76078 30.0636 6.06281 27.2207 7.42437 22.7229C8.78187 18.239 8.97016 12.7398 8.82516 8.49461Z" fill="url(#paint0_linear_63608_7)"/>
<g filter="url(#filter0_d_63608_7)">
<path d="M41.7347 49.7787C49.1248 49.7787 53.5781 46.0893 53.5781 40.004C53.5781 35.4041 50.4006 32.074 45.6825 31.5468V31.3552C49.1489 30.7802 51.8691 27.498 51.8691 23.8325C51.8691 18.6098 47.825 15.2076 41.6625 15.2076H27.7969V49.7787H41.7347ZM33.1891 19.5919H40.3627C44.2623 19.5919 46.4769 21.3648 46.4769 24.5751C46.4769 28.0011 43.9012 29.9177 39.2312 29.9177H33.1891V19.5919ZM33.1891 45.3945V34.0146H40.3144C45.4177 34.0146 48.0656 35.9311 48.0656 39.6686C48.0656 43.406 45.49 45.3945 40.6273 45.3945H33.1891Z" fill="url(#paint1_linear_63608_7)"/>
<path d="M41.7347 49.7787C49.1248 49.7787 53.5781 46.0893 53.5781 40.004C53.5781 35.4041 50.4006 32.074 45.6825 31.5468V31.3552C49.1489 30.7802 51.8691 27.498 51.8691 23.8325C51.8691 18.6098 47.825 15.2076 41.6625 15.2076H27.7969V49.7787H41.7347ZM33.1891 19.5919H40.3627C44.2623 19.5919 46.4769 21.3648 46.4769 24.5751C46.4769 28.0011 43.9012 29.9177 39.2312 29.9177H33.1891V19.5919ZM33.1891 45.3945V34.0146H40.3144C45.4177 34.0146 48.0656 35.9311 48.0656 39.6686C48.0656 43.406 45.49 45.3945 40.6273 45.3945H33.1891Z" stroke="white"/>
</g>
</g>
<defs>
<filter id="filter0_d_63608_7" x="11.2969" y="2.70761" width="58.7812" height="67.5711" filterUnits="userSpaceOnUse" color-interpolation-filters="sRGB">
<feFlood flood-opacity="0" result="BackgroundImageFix"/>
<feColorMatrix in="SourceAlpha" type="matrix" values="0 0 0 0 0 0 0 0 0 0 0 0 0 0 0 0 0 0 127 0" result="hardAlpha"/>
<feOffset dy="4"/>
<feGaussianBlur stdDeviation="8"/>
<feColorMatrix type="matrix" values="0 0 0 0 0 0 0 0 0 0 0 0 0 0 0 0 0 0 0.15 0"/>
<feBlend mode="normal" in2="BackgroundImageFix" result="effect1_dropShadow_63608_7"/>
<feBlend mode="normal" in="SourceGraphic" in2="effect1_dropShadow_63608_7" result="shape"/>
</filter>
<linearGradient id="paint0_linear_63608_7" x1="11.8873" y1="1.72027" x2="82.8385" y2="56.9582" gradientUnits="userSpaceOnUse">
<stop stop-color="#9013FE"/>
<stop offset="1" stop-color="#6610F2"/>
</linearGradient>
<linearGradient id="paint1_linear_63608_7" x1="30.2355" y1="17.4831" x2="46.3152" y2="44.1545" gradientUnits="userSpaceOnUse">
<stop stop-color="white"/>
<stop offset="1" stop-color="#F1E5FC"/>
</linearGradient>
<clipPath id="clip0_63608_7">
<rect width="80" height="65" fill="white"/>
</clipPath>
</defs>
</svg>
