<svg width="20" height="20" viewBox="0 0 20 20" fill="none" xmlns="http://www.w3.org/2000/svg">
<path fill-rule="evenodd" clip-rule="evenodd" d="M10 18.5C14.6944 18.5 18.5 14.6944 18.5 10C18.5 8.16462 17.9183 6.46511 16.9292 5.07578L10.5572 15.6957C10.0804 16.4904 8.93501 16.5081 8.43388 15.7285L4.36912 9.40557L5.63088 8.59443L9.47803 14.5789L16.3569 3.11413L16.3611 3.11665L16.6905 2.56769C18.7225 4.39806 20 7.04984 20 10C20 15.5228 15.5228 20 10 20C4.47715 20 0 15.5228 0 10C0 4.47715 4.47715 0 10 0C12.0298 0 13.9184 0.604785 15.4954 1.64399L14.7228 2.93172C13.372 2.0274 11.7476 1.5 10 1.5C5.30558 1.5 1.5 5.30558 1.5 10C1.5 14.6944 5.30558 18.5 10 18.5Z" fill="#1CA8C3"/>
</svg>
